<svg width="563" height="188" viewBox="0 0 563 188" fill="none" xmlns="http://www.w3.org/2000/svg">
<g clip-path="url(#clip0_95_103)">
<path d="M563 0H0V188H563V0Z" fill="#138A9E"/>
<path d="M366.975 117.365C369.431 117.457 371.878 117.026 374.154 116.101C376.267 115.026 378.1 113.472 379.505 111.563H379.776L381.77 116.692H388.961V91.5486C389.105 89.6741 388.814 87.7917 388.111 86.0479C387.408 84.3041 386.312 82.7458 384.908 81.4943C381.52 79.0758 377.398 77.9064 373.244 78.1855C368.22 78.1232 363.257 79.2942 358.791 81.5959L362.2 88.5481C365.519 86.9115 369.141 85.9807 372.837 85.8146C373.625 85.6922 374.43 85.7548 375.19 85.9975C375.949 86.2402 376.641 86.6562 377.211 87.2126C377.782 87.7691 378.214 88.4506 378.475 89.2032C378.736 89.9558 378.818 90.7588 378.715 91.5486V93.203L372.164 93.406C367.729 93.2847 363.344 94.3754 359.484 96.5607C358.077 97.5485 356.95 98.8837 356.212 100.436C355.475 101.989 355.153 103.705 355.277 105.419C355.173 107.028 355.396 108.641 355.933 110.161C356.471 111.681 357.311 113.077 358.404 114.263C359.549 115.332 360.898 116.158 362.372 116.691C363.845 117.224 365.411 117.453 366.975 117.365ZM368.059 100.964C370.098 99.8248 372.41 99.2656 374.745 99.3468L378.73 99.2115V102.313C378.776 103.324 378.608 104.333 378.239 105.275C377.869 106.217 377.306 107.07 376.585 107.781C375.814 108.485 374.911 109.03 373.928 109.384C372.945 109.738 371.902 109.893 370.858 109.841C367.529 109.841 365.864 108.39 365.861 105.487C365.805 104.607 365.978 103.728 366.363 102.936C366.748 102.143 367.332 101.463 368.059 100.964Z" fill="white"/>
<path d="M406.228 98.9407C405.969 95.6358 406.635 92.3241 408.15 89.3753C408.851 88.3935 409.795 87.6109 410.89 87.1046C411.986 86.5982 413.194 86.3856 414.396 86.4876C415.277 86.4125 416.163 86.5601 416.972 86.9169C417.781 87.2737 418.486 87.8282 419.024 88.5293C420.117 90.3772 420.622 92.5131 420.473 94.6543V116.692H430.775V92.09C431.031 88.3499 429.805 84.6592 427.363 81.8139C426.033 80.5615 424.459 79.5984 422.738 78.9855C421.017 78.3726 419.187 78.1232 417.365 78.2532C415 78.2112 412.654 78.69 410.494 79.6557C408.539 80.5366 406.888 81.9756 405.75 83.7917H405.178L403.793 78.9601H395.925V116.692H406.228V98.9407Z" fill="white"/>
<path d="M436.713 130.544C440.388 132.601 444.579 133.556 448.784 133.296C454.311 133.63 459.818 132.364 464.643 129.649C466.385 128.576 467.813 127.062 468.782 125.261C469.751 123.46 470.228 121.435 470.163 119.391C470.262 117.924 470.019 116.453 469.454 115.095C468.888 113.737 468.016 112.528 466.905 111.563C464.149 109.607 460.802 108.664 457.43 108.894H451.034C447.248 108.894 445.357 108.152 445.359 106.668C445.389 106.124 445.548 105.595 445.823 105.125C446.099 104.656 446.483 104.259 446.944 103.968L448.449 104.137L450.304 104.239C454.499 104.49 458.653 103.295 462.073 100.855C463.476 99.7215 464.591 98.2734 465.328 96.6282C466.065 94.983 466.403 93.1872 466.314 91.387C466.336 89.3831 465.773 87.4163 464.692 85.7282L470.603 84.2242V78.9602H457.434C457.028 78.8699 456.099 78.7283 454.65 78.5353C453.403 78.3613 452.146 78.2659 450.887 78.2495C446.779 77.9825 442.709 79.1817 439.403 81.6335C438.049 82.8143 436.984 84.2885 436.287 85.9437C435.591 87.5989 435.282 89.3913 435.385 91.1839C435.327 93.5292 435.928 95.8437 437.119 97.8654C438.218 99.6996 439.868 101.14 441.834 101.983C440.486 102.723 439.265 103.673 438.218 104.799C437.424 105.761 436.984 106.966 436.972 108.212C436.959 109.459 437.375 110.672 438.15 111.65C438.866 112.614 439.82 113.376 440.919 113.86C438.558 114.305 436.384 115.446 434.677 117.135C433.248 118.684 432.483 120.73 432.547 122.836C432.501 124.373 432.861 125.896 433.593 127.249C434.324 128.603 435.401 129.739 436.713 130.544ZM450.883 84.4986C454.616 84.4986 456.483 86.7697 456.486 91.3118C456.58 93.0363 456.105 94.7441 455.135 96.1734C454.623 96.7916 453.969 97.2768 453.228 97.5878C452.488 97.8987 451.683 98.0263 450.883 97.9594C450.08 98.0212 449.274 97.8914 448.531 97.5809C447.787 97.2704 447.129 96.788 446.609 96.1734C445.605 94.7578 445.112 93.0439 445.209 91.3118C445.209 86.7697 447.1 84.4986 450.883 84.4986ZM443.358 118.497C444.762 117.569 446.42 117.102 448.102 117.162H453.442C455.389 117.061 457.337 117.337 459.18 117.974C459.762 118.203 460.256 118.61 460.59 119.138C460.924 119.667 461.081 120.287 461.039 120.91C460.988 121.835 460.661 122.722 460.101 123.459C459.542 124.196 458.774 124.749 457.897 125.046C455.148 126.176 452.185 126.69 449.216 126.55C447.235 126.656 445.261 126.239 443.493 125.34C442.876 125.027 442.357 124.549 441.997 123.958C441.636 123.368 441.446 122.689 441.45 121.997C441.446 121.299 441.619 120.612 441.955 119.999C442.29 119.387 442.775 118.87 443.365 118.497H443.358Z" fill="white"/>
<path d="M326.278 98.9409C326.031 95.6524 326.696 92.3594 328.201 89.4243C328.892 88.4294 329.833 87.6337 330.929 87.1169C332.026 86.6002 333.239 86.3806 334.447 86.4802C338.498 86.4802 340.523 89.205 340.523 94.6545V116.692H350.826V92.0902C351.075 88.3507 349.837 84.664 347.379 81.8329C346.033 80.5732 344.441 79.605 342.704 78.9891C340.966 78.3731 339.119 78.1226 337.28 78.2534C335.126 78.1007 332.97 78.5348 331.043 79.5095C329.117 80.4842 327.49 81.9629 326.338 83.7881H325.8L326.037 80.75C326.191 77.6706 326.274 75.7116 326.274 74.8807V64.1797H315.976V116.692H326.278V98.9409Z" fill="white"/>
<path d="M295.747 117.365C297.908 117.406 300.067 117.203 302.182 116.759C303.973 116.313 305.679 115.572 307.227 114.567V105.758C305.666 106.821 303.961 107.655 302.163 108.235C300.38 108.783 298.523 109.054 296.658 109.04C291.3 109.04 288.62 105.349 288.617 97.9669C288.617 90.3667 291.297 86.5654 296.658 86.5629C298.077 86.5656 299.488 86.7759 300.846 87.187C302.241 87.6031 303.746 88.1383 305.361 88.7925L308.405 80.8251C304.738 79.0727 300.714 78.1948 296.65 78.2608C294.131 78.0955 291.605 78.4624 289.236 79.3376C286.868 80.2128 284.711 81.5767 282.905 83.3405C279.462 87.4342 277.744 92.7035 278.112 98.0384C278.117 110.923 283.995 117.365 295.747 117.365Z" fill="white"/>
<path d="M490.278 117.365C492.793 117.405 495.305 117.185 497.774 116.707C499.775 116.285 501.715 115.61 503.546 114.699V106.735C501.515 107.708 499.388 108.464 497.198 108.991C495.083 109.475 492.919 109.713 490.749 109.702C489.504 109.777 488.256 109.598 487.083 109.175C485.91 108.751 484.836 108.092 483.927 107.239C482.216 105.372 481.286 102.92 481.331 100.388H505.675V95.3986C505.807 93.1098 505.481 90.8177 504.716 88.6562C503.951 86.4948 502.763 84.5073 501.22 82.8101C499.567 81.2367 497.608 80.02 495.464 79.236C493.32 78.452 491.037 78.1174 488.758 78.253C486.327 78.1203 483.895 78.5146 481.631 79.4089C479.366 80.3032 477.322 81.6764 475.638 83.4343C472.248 87.5416 470.551 92.7852 470.893 98.0983C470.728 100.696 471.099 103.301 471.981 105.75C472.864 108.199 474.241 110.441 476.025 112.337C477.946 114.082 480.197 115.425 482.644 116.288C485.092 117.152 487.687 117.518 490.278 117.365ZM483.69 87.6605C484.341 86.9605 485.139 86.4119 486.025 86.0532C486.912 85.6946 487.867 85.5348 488.822 85.585C489.788 85.54 490.751 85.7019 491.649 86.0598C492.547 86.4178 493.357 86.9636 494.026 87.6605C495.401 89.3066 496.111 91.4066 496.017 93.5487H481.549C481.579 91.4013 482.327 89.3257 483.675 87.653L483.69 87.6605Z" fill="white"/>
<path d="M223.368 78.9639H213.066V116.692H223.368V78.9639Z" fill="white"/>
<path d="M249.504 117.365C251.663 117.406 253.821 117.203 255.934 116.759C257.728 116.314 259.434 115.573 260.984 114.567V105.757C259.423 106.821 257.717 107.655 255.919 108.235C254.136 108.783 252.28 109.054 250.414 109.04C245.051 109.04 242.371 105.349 242.374 97.9667C242.374 90.3665 245.054 86.5651 250.414 86.5626C251.833 86.5657 253.244 86.776 254.602 87.1868C255.995 87.6029 257.5 88.1381 259.118 88.7923L262.158 80.8249C258.492 79.0727 254.47 78.1949 250.407 78.2606C247.89 78.0959 245.366 78.4624 243 79.3362C240.634 80.2101 238.478 81.5718 236.673 83.3328C233.227 87.4251 231.507 92.6951 231.876 98.0306C231.873 110.92 237.749 117.365 249.504 117.365Z" fill="white"/>
<path d="M105.397 64.1797H95.0945V116.688H105.397V64.1797Z" fill="white"/>
<path d="M125.388 117.365C127.842 117.457 130.288 117.027 132.563 116.101C134.677 115.026 136.509 113.472 137.914 111.563H138.185L140.179 116.692H147.373V91.5487C147.517 89.6739 147.226 87.7913 146.522 86.0475C145.818 84.3036 144.722 82.7455 143.317 81.4944C139.935 79.0792 135.82 77.9099 131.672 78.1856C126.646 78.1237 121.682 79.2947 117.215 81.5959L120.624 88.5482C123.944 86.9119 127.567 85.9811 131.265 85.8147C132.053 85.6929 132.857 85.7561 133.616 85.999C134.375 86.242 135.067 86.6581 135.636 87.2144C136.206 87.7708 136.639 88.4521 136.9 89.2044C137.16 89.9566 137.242 90.7593 137.139 91.5487V93.2031L130.588 93.4061C126.153 93.2853 121.769 94.376 117.908 96.5607C116.502 97.5495 115.376 98.885 114.64 100.437C113.903 101.99 113.581 103.706 113.705 105.419C113.6 107.028 113.823 108.641 114.359 110.161C114.896 111.681 115.736 113.076 116.828 114.263C117.972 115.33 119.319 116.155 120.791 116.688C122.262 117.221 123.826 117.451 125.388 117.365ZM126.468 100.964C128.507 99.8248 130.819 99.2657 133.154 99.3469L137.139 99.2115V102.314C137.185 103.324 137.018 104.333 136.65 105.274C136.281 106.216 135.718 107.07 134.998 107.781C134.227 108.485 133.324 109.03 132.341 109.384C131.358 109.738 130.315 109.893 129.271 109.841C125.937 109.841 124.272 108.39 124.274 105.487C124.217 104.608 124.389 103.729 124.774 102.936C125.158 102.143 125.742 101.464 126.468 100.964Z" fill="white"/>
<path d="M65.2677 118.008C65.2677 117.506 65.0884 115.684 64.7297 112.541H65.2677C66.4943 114.12 68.0819 115.382 69.8973 116.221C71.7128 117.061 73.7032 117.453 75.7017 117.365C78.4515 117.427 81.1496 116.612 83.4039 115.037C85.7107 113.322 87.4646 110.969 88.4496 108.269C89.7036 104.911 90.3063 101.344 90.2256 97.7601C90.519 92.6984 89.1933 87.6747 86.4404 83.4157C85.2633 81.7527 83.6895 80.4096 81.8615 79.5081C80.0336 78.6066 78.0095 78.1753 75.9726 78.2532C73.8505 78.1486 71.739 78.6129 69.8568 79.5979C67.9746 80.583 66.3902 82.053 65.2677 83.8556H64.7936L63.3412 78.9601H54.9692V133.292H65.2677V118.008ZM65.2677 96.5757C65.081 93.8696 65.7157 91.1701 67.0889 88.8301C67.7581 88.017 68.6148 87.3784 69.5854 86.9691C70.556 86.5598 71.6116 86.392 72.6614 86.4801C73.7231 86.411 74.7834 86.6338 75.7273 87.1243C76.6712 87.6148 77.4626 88.3543 78.0157 89.2625C79.3166 91.8467 79.9062 94.7302 79.724 97.6172C79.724 105.232 77.4149 109.04 72.7969 109.04C71.6973 109.127 70.594 108.93 69.5921 108.469C68.5902 108.009 67.7232 107.299 67.0738 106.408C65.6556 103.736 65.0291 100.715 65.2677 97.7V96.5757Z" fill="white"/>
<path d="M218.236 74.2715C219.756 74.388 221.262 73.9094 222.435 72.9367C222.917 72.4485 223.29 71.8644 223.532 71.2225C223.773 70.5805 223.876 69.895 223.835 69.2106C223.835 65.8592 221.968 64.1822 218.236 64.1797C214.503 64.1772 212.633 65.8541 212.626 69.2106C212.626 72.582 214.496 74.269 218.236 74.2715Z" fill="white"/>
<path d="M186.189 104.882C185.932 108.244 186.937 111.581 189.007 114.244C190.199 115.373 191.618 116.235 193.169 116.773C194.72 117.311 196.369 117.513 198.004 117.365C201.242 117.461 204.464 116.874 207.46 115.643V107.984C205.37 108.698 203.185 109.097 200.977 109.168C199.8 109.226 198.643 108.853 197.722 108.119C197.287 107.706 196.95 107.201 196.736 106.64C196.523 106.08 196.438 105.479 196.488 104.882V86.6906H207.057V78.9601H196.488V70.9287H189.899L186.93 78.8961L181.256 82.3366V86.6906H186.189V104.882Z" fill="white"/>
<path d="M155.937 97.2864C157.927 98.6653 160.074 99.8013 162.334 100.67C164.358 101.528 165.979 102.28 167.195 102.926C168.13 103.374 168.994 103.956 169.761 104.652C170.013 104.913 170.21 105.222 170.34 105.56C170.469 105.899 170.528 106.26 170.514 106.622C170.514 108.783 168.646 109.864 164.911 109.864C162.77 109.819 160.642 109.514 158.575 108.954C156.353 108.409 154.188 107.654 152.11 106.698V115.203C153.857 115.943 155.679 116.491 157.544 116.838C159.863 117.242 162.215 117.428 164.569 117.395C168.816 117.696 173.047 116.633 176.647 114.361C177.989 113.326 179.058 111.98 179.761 110.438C180.464 108.897 180.779 107.208 180.681 105.517C180.723 103.854 180.388 102.203 179.699 100.689C178.988 99.2709 177.947 98.0443 176.662 97.1134C174.645 95.741 172.468 94.6197 170.179 93.7745C167.948 92.967 165.795 91.9602 163.745 90.7665C163.316 90.5253 162.956 90.1787 162.698 89.7596C162.441 89.3405 162.295 88.8627 162.274 88.3714C162.274 86.7295 163.794 85.9086 166.834 85.9086C168.541 85.9089 170.237 86.1701 171.865 86.6832C173.664 87.2587 175.433 87.9238 177.166 88.676L180.27 81.2161C176.117 79.2697 171.587 78.2558 166.999 78.2457C163.117 78.0106 159.256 78.9713 155.937 80.9981C154.68 81.8576 153.663 83.0227 152.981 84.3837C152.299 85.7447 151.975 87.2568 152.039 88.7775C151.988 90.4717 152.304 92.157 152.965 93.7181C153.645 95.1346 154.667 96.3605 155.937 97.2864Z" fill="white"/>
</g>
<defs>
<clipPath id="clip0_95_103">
<rect width="563" height="188" fill="white"/>
</clipPath>
</defs>
</svg>
